<?xml version="1.0" standalone="no"?>
<!DOCTYPE svg PUBLIC "-//W3C//DTD SVG 20010904//EN"
 "http://www.w3.org/TR/2001/REC-SVG-20010904/DTD/svg10.dtd">
<svg version="1.0" xmlns="http://www.w3.org/2000/svg"
 width="542.000000pt" height="542.000000pt" viewBox="0 0 542.000000 542.000000"
 preserveAspectRatio="xMidYMid meet">
<metadata>
Created by potrace 1.14, written by Peter Selinger 2001-2017
</metadata>
<g transform="translate(0.000000,542.000000) scale(0.100000,-0.100000)"
fill="#000000" stroke="none">
<path d="M2435 5393 c-488 -58 -864 -192 -1240 -443 -203 -136 -414 -326 -577
-520 -250 -297 -446 -685 -547 -1086 -55 -216 -66 -321 -66 -639 0 -335 11
-429 80 -693 248 -945 998 -1689 1940 -1925 249 -63 335 -72 665 -72 324 0
407 8 640 65 145 36 340 99 340 110 0 5 -10 17 -22 27 -39 31 -123 129 -161
186 -254 383 -254 872 2 1250 178 264 464 441 786 487 314 44 652 -65 899
-291 31 -28 58 -50 61 -48 11 11 76 250 98 359 42 205 51 311 51 550 -1 364
-56 662 -181 980 -365 926 -1198 1573 -2184 1695 -112 14 -493 19 -584 8z"/>
<path d="M4276 2020 c-228 -36 -425 -138 -579 -299 -121 -126 -192 -248 -243
-416 -26 -84 -28 -103 -28 -270 -1 -213 14 -287 94 -450 122 -250 343 -435
625 -522 l90 -28 590 0 590 0 -1 570 -1 570 -25 96 c-101 378 -388 654 -763
735 -87 19 -270 26 -349 14z"/>
</g>
</svg>
